<svg width="64" height="64" viewBox="0 0 64 64" fill="none" xmlns="http://www.w3.org/2000/svg">
<rect x="3" y="3" width="58" height="58" rx="5" stroke="black" stroke-width="6"/>
<path fill-rule="evenodd" clip-rule="evenodd" d="M17 24C14.2386 24 12 26.2386 12 29V36C12 38.7614 14.2386 41 17 41H47C49.7614 41 52 38.7614 52 36V29C52 26.2386 49.7614 24 47 24H17ZM19.5 27C18.1193 27 17 28.1193 17 29.5V35.5C17 36.8807 18.1193 38 19.5 38C20.8807 38 22 36.8807 22 35.5V29.5C22 28.1193 20.8807 27 19.5 27Z" fill="black"/>
<path fill-rule="evenodd" clip-rule="evenodd" d="M17 24C14.2386 24 12 26.2386 12 29V36C12 38.7614 14.2386 41 17 41H47C49.7614 41 52 38.7614 52 36V29C52 26.2386 49.7614 24 47 24H17ZM19.5 27C18.1193 27 17 28.1193 17 29.5V35.5C17 36.8807 18.1193 38 19.5 38C20.8807 38 22 36.8807 22 35.5V29.5C22 28.1193 20.8807 27 19.5 27Z" fill="black"/>
</svg>
