<svg width="64" height="64" viewBox="0 0 64 64" fill="none" xmlns="http://www.w3.org/2000/svg">
<rect x="3" y="3" width="58" height="58" rx="5" stroke="black" stroke-width="6"/>
<mask id="path-2-inside-1_9_74" fill="white">
<rect x="12" y="12" width="40" height="40" rx="5"/>
</mask>
<rect x="12" y="12" width="40" height="40" rx="5" stroke="black" stroke-width="12" mask="url(#path-2-inside-1_9_74)"/>
<mask id="path-3-inside-2_9_74" fill="white">
<rect x="23" y="23" width="18" height="18" rx="5"/>
</mask>
<rect x="23" y="23" width="18" height="18" rx="5" fill="black" stroke="black" stroke-width="12" mask="url(#path-3-inside-2_9_74)"/>
<rect x="28" y="16" width="6" height="15" rx="2" transform="rotate(-180 28 16)" fill="black"/>
<rect x="28" y="63" width="6" height="15" rx="2" transform="rotate(-180 28 63)" fill="black"/>
<rect x="42" y="15" width="6" height="15" rx="2" transform="rotate(-180 42 15)" fill="black"/>
<rect x="42" y="62" width="6" height="15" rx="2" transform="rotate(-180 42 62)" fill="black"/>
<rect x="48" y="35" width="6" height="15" rx="2" transform="rotate(-90 48 35)" fill="black"/>
<rect x="3" y="35" width="6" height="15" rx="2" transform="rotate(-90 3 35)" fill="black"/>
</svg>
