<svg width="64" height="64" viewBox="0 0 64 64" fill="none" xmlns="http://www.w3.org/2000/svg">
<rect x="3" y="3" width="58" height="58" rx="5" stroke="black" stroke-width="6"/>
<path d="M38.7902 30.5865H51.6256C52.3961 30.5865 53.048 29.9222 52.9972 29.1371C52.5654 22.5975 49.238 16.8688 44.3189 13.2453C43.6924 12.788 42.8034 12.9951 42.397 13.6594L35.5898 24.7371C37.5033 25.9708 38.7902 28.1191 38.7902 30.5865ZM35.5898 36.4274C34.5485 37.0917 33.3208 37.4972 32 37.4972C30.6792 37.4972 29.46 37.0917 28.4102 36.4274L21.603 47.5137C21.1966 48.178 21.3998 49.0753 22.0771 49.4463C25.032 51.0682 28.4102 52 32 52C35.5898 52 38.968 51.0682 41.9229 49.4463C42.6002 49.0753 42.8034 48.1694 42.397 47.5137L35.5898 36.4274ZM32 34.7277C34.2437 34.7277 36.064 32.8728 36.064 30.5865C36.064 28.3002 34.2437 26.4453 32 26.4453C29.7563 26.4453 27.936 28.3002 27.936 30.5865C27.936 32.8728 29.7563 34.7277 32 34.7277ZM12.3744 30.5865H25.2098C25.2098 28.1191 26.4967 25.9708 28.4102 24.7457L21.603 13.668C21.1966 13.0037 20.3076 12.788 19.6811 13.2539C14.762 16.8774 11.4346 22.6061 11.0028 29.1457C10.952 29.9222 11.6039 30.5865 12.3744 30.5865Z" fill="black"/>
</svg>
