<svg width="64" height="64" viewBox="0 0 64 64" fill="none" xmlns="http://www.w3.org/2000/svg">
<rect x="3" y="3" width="58" height="58" rx="5" stroke="black" stroke-width="6"/>
<path fill-rule="evenodd" clip-rule="evenodd" d="M45 31C45 34.0187 43.9711 36.7971 42.2448 39.0037C46.5498 39.1331 50 42.6636 50 47V59H14V47C14 42.6636 17.4502 39.1331 21.7552 39.0037C20.0289 36.7971 19 34.0187 19 31C19 23.8203 24.8203 18 32 18C39.1797 18 45 23.8203 45 31ZM32 40C36.9706 40 41 35.9706 41 31C41 26.0294 36.9706 22 32 22C27.0294 22 23 26.0294 23 31C23 35.9706 27.0294 40 32 40Z" fill="black"/>
</svg>
