<svg width="64" height="64" viewBox="0 0 64 64" fill="none" xmlns="http://www.w3.org/2000/svg">
<rect x="3" y="3" width="58" height="58" rx="5" stroke="black" stroke-width="6"/>
<path fill-rule="evenodd" clip-rule="evenodd" d="M36 51.5999C43.8365 50.0092 50.0092 43.8365 51.5999 36H43.3172C42.112 39.4097 39.4097 42.1121 36 43.3172V51.5999ZM36 20.6828C39.4097 21.888 42.1121 24.5904 43.3172 28H51.5999C50.0092 20.1635 43.8365 13.9908 36 12.4001V20.6828ZM28 12.4001L28 20.6828C24.5904 21.888 21.888 24.5904 20.6828 28H12.4001C13.9908 20.1635 20.1635 13.9908 28 12.4001ZM28 43.3172L28 51.5999C20.1635 50.0092 13.9908 43.8365 12.4001 36H20.6828C21.888 39.4097 24.5904 42.112 28 43.3172Z" fill="black"/>
</svg>
