<svg width="64" height="64" viewBox="0 0 64 64" fill="none" xmlns="http://www.w3.org/2000/svg">
<rect x="3" y="3" width="58" height="58" rx="5" stroke="black" stroke-width="6"/>
<path d="M16.5476 13.8897C23.2339 8.71834 30.4916 15.0326 32.1203 24.8611C33.349 24.8611 34.5491 25.2039 35.6349 25.8325C37.1207 24.1182 38.4351 21.7754 37.9208 19.1468C36.7207 13.004 43.6069 8.03263 50.1503 16.5183C55.3221 23.2039 49.0074 30.461 39.1494 32.0896C39.1494 33.3181 38.8351 34.5467 38.1779 35.6324C39.8923 37.0895 42.2354 38.4038 44.8642 37.8895C50.9504 36.6895 55.9508 43.5466 47.4644 50.118C40.7781 55.2894 33.5204 48.9751 31.8917 39.1467C30.663 39.1467 29.4629 38.7752 28.4057 38.1467C26.9199 39.8609 25.5769 42.2323 26.0912 44.8609C27.2913 50.9751 20.4051 55.9751 13.8617 47.4894C8.66128 40.7752 15.0046 33.5181 24.8626 31.9181C24.8626 30.6896 25.234 29.4896 25.8627 28.4039C24.1482 26.9468 21.8052 25.6039 19.1478 26.1182C13.0616 27.3182 8.06123 20.4611 16.5476 13.8897Z" fill="black"/>
</svg>
