<svg width="64" height="64" viewBox="0 0 64 64" fill="none" xmlns="http://www.w3.org/2000/svg">
<rect x="3" y="3" width="58" height="58" rx="5" stroke="white" stroke-width="6"/>
<rect x="22" y="48.8636" width="8.88889" height="31.1111" rx="2.22222" transform="rotate(-180 22 48.8636)" fill="white"/>
<rect width="11.1111" height="3.33333" rx="1.66667" transform="matrix(-1 -8.74228e-08 -8.74228e-08 1 23.1111 45.5303)" fill="white"/>
<path fill-rule="evenodd" clip-rule="evenodd" d="M16.689 15.7093C17.2214 15.3856 17.8897 15.3856 18.4221 15.7093C20.5672 17.0139 22 19.3735 22 22.0677C22 24.762 20.5672 27.1216 18.4221 28.4262C17.8897 28.7499 17.2214 28.7499 16.689 28.4262C14.5439 27.1216 13.1111 24.762 13.1111 22.0677C13.1111 19.3735 14.5439 17.0139 16.689 15.7093Z" fill="white"/>
<rect x="36.4443" y="48.8637" width="8.88889" height="31.1111" rx="2.22222" transform="rotate(-180 36.4443 48.8637)" fill="white"/>
<rect width="11.1111" height="3.33333" rx="1.66667" transform="matrix(-1 -8.74228e-08 -8.74228e-08 1 37.5557 45.5303)" fill="white"/>
<path fill-rule="evenodd" clip-rule="evenodd" d="M31.1335 15.7093C31.6658 15.3856 32.3342 15.3856 32.8666 15.7093C35.0116 17.0139 36.4444 19.3735 36.4444 22.0677C36.4444 24.7618 35.0116 27.1214 32.8666 28.426C32.3342 28.7498 31.6658 28.7498 31.1335 28.426C28.9884 27.1214 27.5557 24.7618 27.5557 22.0677C27.5557 19.3735 28.9884 17.0139 31.1335 15.7093Z" fill="white"/>
<rect x="50.8889" y="48.8637" width="8.88889" height="31.1111" rx="2.22222" transform="rotate(-180 50.8889 48.8637)" fill="white"/>
<rect width="11.1111" height="3.33333" rx="1.66667" transform="matrix(-1 -8.74228e-08 -8.74228e-08 1 52 45.5303)" fill="white"/>
<path fill-rule="evenodd" clip-rule="evenodd" d="M45.5779 15.7093C46.1102 15.3856 46.7786 15.3856 47.3109 15.7093C49.4561 17.0139 50.8888 19.3735 50.8888 22.0677C50.8888 24.7619 49.4561 27.1215 47.3109 28.4261C46.7786 28.7498 46.1102 28.7498 45.5779 28.4261C43.4327 27.1215 42 24.7619 42 22.0677C42 19.3735 43.4327 17.0139 45.5779 15.7093Z" fill="white"/>
</svg>
