<svg width="64" height="64" viewBox="0 0 64 64" fill="none" xmlns="http://www.w3.org/2000/svg">
<rect x="3" y="3" width="58" height="58" rx="5" stroke="white" stroke-width="6"/>
<path d="M30.0979 14.8541C30.6966 13.0115 33.3034 13.0115 33.9021 14.8541L37.1638 24.8926C37.4316 25.7167 38.1995 26.2746 39.0659 26.2746H49.621C51.5585 26.2746 52.364 28.7538 50.7966 29.8926L42.2574 36.0967C41.5564 36.606 41.2631 37.5088 41.5308 38.3328L44.7925 48.3713C45.3912 50.2139 43.2823 51.7462 41.7148 50.6074L33.1756 44.4032C32.4746 43.894 31.5254 43.894 30.8244 44.4033L22.2852 50.6074C20.7177 51.7462 18.6088 50.2139 19.2075 48.3713L22.4692 38.3328C22.7369 37.5088 22.4436 36.606 21.7426 36.0967L13.2034 29.8926C11.636 28.7538 12.4415 26.2746 14.379 26.2746H24.9341C25.8005 26.2746 26.5684 25.7167 26.8362 24.8926L30.0979 14.8541Z" fill="white"/>
</svg>
