<svg width="64" height="64" viewBox="0 0 64 64" fill="none" xmlns="http://www.w3.org/2000/svg">
<rect x="3" y="3" width="58" height="58" rx="5" stroke="white" stroke-width="6"/>
<rect x="52" y="12" width="18" height="40" rx="2" transform="rotate(90 52 12)" fill="white"/>
<rect x="19" y="45" width="7" height="7" rx="2" transform="rotate(90 19 45)" fill="white"/>
<rect x="19" y="34" width="7" height="7" rx="2" transform="rotate(90 19 34)" fill="white"/>
<rect x="30" y="45" width="7" height="7" rx="2" transform="rotate(90 30 45)" fill="white"/>
<rect x="30" y="34" width="7" height="7" rx="2" transform="rotate(90 30 34)" fill="white"/>
<rect x="41" y="45" width="7" height="7" rx="2" transform="rotate(90 41 45)" fill="white"/>
<rect x="41" y="34" width="7" height="7" rx="2" transform="rotate(90 41 34)" fill="white"/>
<rect x="52" y="45" width="7" height="7" rx="2" transform="rotate(90 52 45)" fill="white"/>
<rect x="52" y="34" width="7" height="7" rx="2" transform="rotate(90 52 34)" fill="white"/>
</svg>
