<svg width="64" height="64" viewBox="0 0 64 64" fill="none" xmlns="http://www.w3.org/2000/svg">
<rect x="3" y="3" width="58" height="58" rx="5" stroke="#00FF00" stroke-width="6"/>
<mask id="path-2-outside-1_9_255" maskUnits="userSpaceOnUse" x="19" y="12" width="26" height="40" fill="black">
<rect fill="white" x="19" y="12" width="26" height="40"/>
<path fill-rule="evenodd" clip-rule="evenodd" d="M24 42C24 44.7614 26.2386 47 29 47H35C37.7614 47 40 44.7614 40 42L40 22C40 19.2386 37.7614 17 35 17L29 17C26.2386 17 24 19.2386 24 22L24 42ZM27 22.5C27 23.8807 28.1193 25 29.5 25L34.5 25C35.8807 25 37 23.8807 37 22.5C37 21.1193 35.8807 20 34.5 20L29.5 20C28.1193 20 27 21.1193 27 22.5Z"/>
</mask>
<path d="M29 42H19C19 47.5228 23.4772 52 29 52V42ZM35 42H29V52H35V42ZM35 42V42V52C40.5228 52 45 47.5228 45 42L35 42ZM35 22L35 42L45 42L45 22L35 22ZM35 22L45 22C45 16.4772 40.5228 12 35 12V22ZM29 22L35 22V12H29L29 22ZM29 22L29 12C23.4772 12 19 16.4772 19 22H29ZM29 42L29 22H19L19 42H29ZM29.5 20C30.8807 20 32 21.1193 32 22.5L22 22.5C22 26.6421 25.3579 30 29.5 30L29.5 20ZM34.5 20L29.5 20L29.5 30L34.5 30V20ZM32 22.5C32 21.1193 33.1193 20 34.5 20V30C38.6421 30 42 26.6421 42 22.5H32ZM34.5 25C33.1193 25 32 23.8807 32 22.5H42C42 18.3579 38.6421 15 34.5 15V25ZM29.5 25L34.5 25V15L29.5 15V25ZM32 22.5C32 23.8807 30.8807 25 29.5 25V15C25.3579 15 22 18.3579 22 22.5L32 22.5Z" fill="#00FF00" mask="url(#path-2-outside-1_9_255)"/>
</svg>
