<svg width="64" height="64" viewBox="0 0 64 64" fill="none" xmlns="http://www.w3.org/2000/svg">
<rect x="3" y="3" width="58" height="58" rx="5" stroke="#00FF00" stroke-width="6"/>
<path d="M32.866 20.5C32.4811 21.1667 31.5189 21.1667 31.134 20.5L21.6077 4C21.2228 3.33333 21.7039 2.5 22.4737 2.5L41.5263 2.5C42.2961 2.5 42.7772 3.33333 42.3923 4L32.866 20.5Z" fill="#00FF00"/>
<path d="M31.134 43.5C31.5189 42.8333 32.4811 42.8333 32.866 43.5L42.3923 60C42.7772 60.6667 42.2961 61.5 41.5263 61.5H22.4737C21.7039 61.5 21.2228 60.6667 21.6077 60L31.134 43.5Z" fill="#00FF00"/>
<path d="M43.5 32.866C42.8333 32.4811 42.8333 31.5189 43.5 31.134L60 21.6077C60.6667 21.2228 61.5 21.7039 61.5 22.4737L61.5 41.5263C61.5 42.2961 60.6667 42.7772 60 42.3923L43.5 32.866Z" fill="#00FF00"/>
<path d="M20.5 31.134C21.1667 31.5189 21.1667 32.4811 20.5 32.866L4 42.3923C3.33333 42.7772 2.5 42.2961 2.5 41.5263L2.5 22.4737C2.5 21.7039 3.33333 21.2228 4 21.6077L20.5 31.134Z" fill="#00FF00"/>
</svg>
