<svg width="64" height="64" viewBox="0 0 64 64" fill="none" xmlns="http://www.w3.org/2000/svg">
<rect x="3" y="3" width="58" height="58" rx="5" stroke="#00FF00" stroke-width="6"/>
<path fill-rule="evenodd" clip-rule="evenodd" d="M36 51.5999C43.8365 50.0092 50.0092 43.8365 51.5999 36H43.3172C42.112 39.4096 39.4097 42.112 36 43.3171V51.5999ZM36 20.6828C39.4097 21.8879 42.1121 24.5903 43.3172 28H51.5999C50.0092 20.1634 43.8365 13.9908 36 12.4V20.6828ZM28 12.4L28 20.6828C24.5904 21.8879 21.888 24.5903 20.6828 28H12.4001C13.9908 20.1634 20.1635 13.9908 28 12.4ZM28 43.3171L28 51.5999C20.1635 50.0091 13.9908 43.8365 12.4001 36H20.6828C21.888 39.4096 24.5904 42.112 28 43.3171Z" fill="#00FF00"/>
</svg>
